<svg width="418" height="329" viewBox="0 0 418 329" fill="none" xmlns="http://www.w3.org/2000/svg">
<path d="M4.50001 267.5C0.687829 261.688 0.509194 256.105 2.00001 244C4.89173 234.934 5.09037 229.226 19 225C24.804 225.982 32.1815 226.024 41.5 218.5C48 208 39.9495 202.118 48 193C50.7935 188.254 51.9965 184.271 53 173C52.9282 168.004 54.3377 164.83 59.5 158.5C65.7948 153.005 70.3694 150.795 83.5 151C90.8447 151.597 96.1461 150.69 109 145.5C115.022 143.13 117.94 139.786 122.5 131C122.5 127.485 122.5 125.515 122.5 122C121.22 116.972 120.724 113.671 125.5 95.5C128.517 89.3847 131.503 86.7634 141.5 85L157.5 80.5C162.061 78.8733 164.004 76.8213 165.5 69.5C168.079 60.0209 170.093 54.5881 178 44C182.124 34.2431 184.066 28.5249 196 24C203.013 17.7626 207.17 14.7069 217 14C225.173 13.8802 229.993 14.7698 239 18C245.648 20.0942 246.355 23.0889 247.5 28.5C248.585 31.6862 248.329 35.758 247.5 44C252.954 35.1427 255.17 34.1988 258.5 35.5C261.83 36.8012 269 35.5 269 35.5C274.697 35.1023 277.825 34.633 282 28.5C293.061 24.236 297.517 27.2169 304.5 35.5C319.911 50.0403 320.431 53.1394 323.5 60C325.275 71.7173 325.19 77.0974 323.5 85C318.793 97.1261 317.759 102.852 320.5 110C318.695 121.887 311.5 127 310.5 131C309.5 135 315.249 142.01 320.5 142C325.751 141.99 331 151 331 151C335.17 160.528 337.758 161.634 342.5 161.5C349.697 167.704 349.5 164 346 175C342.5 186 346 185.361 346 192C343.203 205.008 344.044 206.141 346 207C347.001 212.385 348.188 214.796 354 215.5C357.59 221.674 360 214.5 366 220C372 225.5 372 233 372 233C372 233 376 243 382.5 243C389 243 398.5 255.5 398.5 255.5C398.5 255.5 403 266 410.5 267C418 268 415 282.5 415 282.5C415 282.5 411.5 281 415 294C418.5 307 415 307 415 307" stroke="white" stroke-width="2"/>
<path d="M256.5 34C256.5 34 260.606 29.105 256.5 22.5C252.394 15.8949 256.781 25.9621 248 11C239.219 -3.96217 227.5 2.49999 227.5 2.49999C213.052 7.0092 206.088 7.91667 196.5 5.49999C179.07 8.02405 176.659 14.5291 170 24.5L163.5 45.5C155.492 55.9884 150.258 59.6614 139 60.5C121.006 68.0005 119.079 75.4953 113.5 88C113.757 103.252 109.199 106.848 97.5 109.5C86.7832 115.659 83.3277 118.267 81.5 121.5C83.7959 126.907 84.7364 130.045 75.5 139C61.9697 151.186 54.5 140.5 49 153.5C43.5 166.5 49.5 177 43.5 181.5C37.5 186 34 207 34 207C34 207 27 219.5 17.5 219.5C8 219.5 1 219.5 1 219.5M176 84C164.501 93.8367 153 86.5 148.5 98C144 109.5 130 116 132.5 121.5C135 127 131.5 149 126.5 153.5C121.5 158 120 181.5 113.5 181.5C107 181.5 94.5 199 85 195C75.5 191 77.5 219.5 69.5 219.5C61.5 219.5 63 236 58.5 250C54 264 17.5 250 17.5 250M123 188L126.5 199L132.5 207H139C142.71 205.438 144.79 204.562 148.5 203" stroke="white" stroke-width="2"/>
<path d="M301.5 149C311.9 166.6 326 172.5 326 181.5C326 190.5 326 194 326 204C326 214 307.5 220.5 314.5 229.5C321.5 238.5 335.5 238.5 335.5 238.5C335.5 238.5 352.5 229.5 361.5 238.5C370.5 247.5 361.5 271 371.5 272C381.5 273 392.5 268 392.5 280C392.5 292 384 308 392.5 306.5C401 305 412.5 328 412.5 328" stroke="white" stroke-width="2"/>
</svg>
